<svg xmlns="http://www.w3.org/2000/svg" viewBox="0 0 240 420" role="img" aria-labelledby="title desc">
  <title id="title">Mapa corporal frontal</title>
  <desc id="desc">Ilustração frontal simplificada do corpo para seleção de regiões de dor.</desc>
  <defs>
    <linearGradient id="frontBody" x1="120" x2="120" y1="16" y2="404" gradientUnits="userSpaceOnUse">
      <stop offset="0" stop-color="#f0f0f0" stop-opacity="0.82"/>
      <stop offset="1" stop-color="#00c9a7" stop-opacity="0.42"/>
    </linearGradient>
  </defs>
  <rect width="240" height="420" rx="28" fill="#141414"/>
  <g fill="none" stroke="url(#frontBody)" stroke-linecap="round" stroke-linejoin="round">
    <circle cx="120" cy="48" r="28" stroke-width="7"/>
    <path d="M90 89c12 11 48 11 60 0" stroke-width="7"/>
    <path d="M86 104c16-10 52-10 68 0 12 30 15 68 6 116-9 14-71 14-80 0-9-48-6-86 6-116Z" stroke-width="7"/>
    <path d="M87 112 55 143 38 225" stroke-width="9"/>
    <path d="M153 112 185 143 202 225" stroke-width="9"/>
    <path d="M74 232 61 335 55 390" stroke-width="10"/>
    <path d="M104 237 100 338 91 392" stroke-width="10"/>
    <path d="M136 237 140 338 149 392" stroke-width="10"/>
    <path d="M166 232 179 335 185 390" stroke-width="10"/>
    <path d="M80 144c20 12 60 12 80 0" stroke-width="4" opacity="0.55"/>
    <path d="M86 182c18 9 50 9 68 0" stroke-width="4" opacity="0.45"/>
    <path d="M92 222c13 8 43 8 56 0" stroke-width="4" opacity="0.45"/>
  </g>
  <g fill="#00c9a7" opacity="0.18">
    <circle cx="120" cy="48" r="18"/>
    <path d="M92 116h56l9 96c-19 10-55 10-74 0l9-96Z"/>
    <path d="M80 242h28l-11 79H70l10-79Z"/>
    <path d="M132 242h28l10 79h-27l-11-79Z"/>
  </g>
</svg>
