<svg viewBox="0 0 800 1000" xmlns="http://www.w3.org/2000/svg">
    <style>
        .bg { fill: #000000; }
        .body-base { fill: #ffffff; }
        .body-line { stroke: #ffffff; stroke-linecap: round; stroke-linejoin: round; fill: none; }
        .body-detail { stroke: #000000; stroke-width: 4; stroke-linecap: round; fill: none; }
        .hair { fill: #1f2937; }
        .line { stroke: #9ca3af; stroke-width: 3; fill: none; }
        .dot { fill: #9ca3af; r: 6; }
        .box { fill: #9ca3af; rx: 20; height: 40px; }
        .txt { fill: #111827; font-family: -apple-system, BlinkMacSystemFont, "Segoe UI", Roboto, sans-serif; font-size: 16px; font-weight: 700; text-anchor: middle; dominant-baseline: central; }
        .title { fill: #ffffff; font-family: -apple-system, BlinkMacSystemFont, "Segoe UI", Roboto, sans-serif; font-size: 28px; font-weight: 900; }
    </style>

    <rect width="800" height="1000" class="bg"/>

    <text x="250" y="140" class="title">E</text>
    <text x="550" y="140" class="title">D</text>

    <g>
        <path d="M 365 460 L 340 680 L 340 880" stroke-width="46" class="body-line"/>
        <path d="M 435 460 L 460 680 L 460 880" stroke-width="46" class="body-line"/>
        <path d="M 340 860 L 320 890" stroke-width="36" class="body-line"/>
        <path d="M 460 860 L 480 890" stroke-width="36" class="body-line"/>
        <path d="M 330 230 L 260 370 L 245 490" stroke-width="36" class="body-line"/>
        <path d="M 470 230 L 540 370 L 555 490" stroke-width="36" class="body-line"/>
        <path d="M 330 220 Q 400 190 470 220 L 460 460 Q 400 480 340 460 Z" class="body-base"/>
        <line x1="400" y1="160" x2="400" y2="200" stroke-width="36" class="body-line"/>
        <rect x="360" y="60" width="80" height="110" rx="40" class="body-base"/>

        <path d="M 358 100 Q 400 50 442 100 Q 450 130 430 140 Q 400 160 370 140 Z" class="hair"/>
        <line x1="400" y1="230" x2="400" y2="400" stroke-width="3" stroke="#e5e7eb"/>
        <path d="M 342 380 Q 400 390 458 380" class="body-detail"/>
        <path d="M 342 460 Q 400 480 458 460" class="body-detail"/>
        <line x1="400" y1="470" x2="400" y2="390" class="body-detail"/>
    </g>

    <polyline points="400,180 400,200 160,200" class="line"/>
    <circle cx="400" cy="180" class="dot"/>
    <rect x="40" y="180" width="120" class="box"/>
    <text x="100" y="200" class="txt">Pescoço</text>

    <polyline points="400,360 400,400 160,400" class="line"/>
    <circle cx="400" cy="360" class="dot"/>
    <rect x="40" y="380" width="120" class="box"/>
    <text x="100" y="400" class="txt">Lombar</text>

    <polyline points="250,470 160,470" class="line"/>
    <circle cx="250" cy="470" class="dot"/>
    <rect x="40" y="450" width="120" class="box"/>
    <text x="100" y="470" class="txt">Punho</text>

    <polyline points="245,510 245,560 160,560" class="line"/>
    <circle cx="245" cy="510" class="dot"/>
    <rect x="40" y="540" width="120" class="box"/>
    <text x="100" y="560" class="txt">Mão</text>

    <polyline points="350,620 180,620" class="line"/>
    <circle cx="350" cy="620" class="dot"/>
    <rect x="20" y="600" width="160" class="box"/>
    <text x="100" y="620" class="txt">Posterior coxa</text>

    <polyline points="345,760 180,760" class="line"/>
    <circle cx="345" cy="760" class="dot"/>
    <rect x="20" y="740" width="160" class="box"/>
    <text x="100" y="760" class="txt">Panturrilha</text>

    <polyline points="330,890 160,890" class="line"/>
    <circle cx="330" cy="890" class="dot"/>
    <rect x="40" y="870" width="120" class="box"/>
    <text x="100" y="890" class="txt">Calcanhar</text>

    <polyline points="400,280 640,280" class="line"/>
    <circle cx="400" cy="280" class="dot"/>
    <rect x="640" y="260" width="120" class="box"/>
    <text x="700" y="280" class="txt">Costas</text>

    <polyline points="440,440 640,440" class="line"/>
    <circle cx="440" cy="440" class="dot"/>
    <rect x="640" y="420" width="120" class="box"/>
    <text x="700" y="440" class="txt">Nádegas</text>

    <polyline points="550,470 640,470" class="line"/>
    <circle cx="550" cy="470" class="dot"/>
    <rect x="640" y="450" width="120" class="box"/>
    <text x="700" y="470" class="txt">Punho</text>

    <polyline points="555,510 555,560 640,560" class="line"/>
    <circle cx="555" cy="510" class="dot"/>
    <rect x="640" y="540" width="120" class="box"/>
    <text x="700" y="560" class="txt">Mão</text>

    <polyline points="450,620 620,620" class="line"/>
    <circle cx="450" cy="620" class="dot"/>
    <rect x="620" y="600" width="160" class="box"/>
    <text x="700" y="620" class="txt">Posterior coxa</text>

    <polyline points="455,760 620,760" class="line"/>
    <circle cx="455" cy="760" class="dot"/>
    <rect x="620" y="740" width="160" class="box"/>
    <text x="700" y="760" class="txt">Panturrilha</text>

    <polyline points="470,890 640,890" class="line"/>
    <circle cx="470" cy="890" class="dot"/>
    <rect x="640" y="870" width="120" class="box"/>
    <text x="700" y="890" class="txt">Calcanhar</text>
</svg>
