<svg xmlns="http://www.w3.org/2000/svg" viewBox="0 0 240 420" role="img" aria-labelledby="title desc">
  <title id="title">Mapa corporal posterior</title>
  <desc id="desc">Silhueta posterior simplificada para seleção de regiões de dor.</desc>
  <defs>
    <linearGradient id="bodyBackStroke" x1="120" x2="120" y1="22" y2="398" gradientUnits="userSpaceOnUse">
      <stop offset="0" stop-color="#d9fff8" stop-opacity="0.86"/>
      <stop offset="1" stop-color="#00c9a7" stop-opacity="0.6"/>
    </linearGradient>
    <linearGradient id="bodyBackFill" x1="120" x2="120" y1="72" y2="382" gradientUnits="userSpaceOnUse">
      <stop offset="0" stop-color="#00c9a7" stop-opacity="0.17"/>
      <stop offset="1" stop-color="#00c9a7" stop-opacity="0.08"/>
    </linearGradient>
  </defs>
  <g fill="url(#bodyBackFill)" stroke="url(#bodyBackStroke)" stroke-linecap="round" stroke-linejoin="round">
    <circle cx="120" cy="46" r="24" stroke-width="5"/>
    <path d="M95 88c12 8 38 8 50 0" fill="none" stroke-width="5"/>
    <path d="M86 106c20-16 48-16 68 0 13 29 14 72 6 108-5 19-15 29-29 32-7 1-15 1-22 0-14-3-24-13-29-32-8-36-7-79 6-108Z" stroke-width="5"/>
    <path d="M89 116 64 148 48 230" fill="none" stroke-width="11"/>
    <path d="M151 116 176 148 192 230" fill="none" stroke-width="11"/>
    <path d="M98 240 88 324 80 390" fill="none" stroke-width="13"/>
    <path d="M142 240 152 324 160 390" fill="none" stroke-width="13"/>
    <path d="M107 242 106 320 101 388" fill="none" stroke-width="10"/>
    <path d="M133 242 134 320 139 388" fill="none" stroke-width="10"/>
    <path d="M98 119v96" fill="none" stroke-width="3" opacity="0.36"/>
    <path d="M142 119v96" fill="none" stroke-width="3" opacity="0.36"/>
    <path d="M91 151c17 10 41 10 58 0" fill="none" stroke-width="3" opacity="0.38"/>
    <path d="M90 204c18 8 42 8 60 0" fill="none" stroke-width="3" opacity="0.34"/>
  </g>
  <g fill="#00c9a7" opacity="0.12">
    <ellipse cx="120" cy="146" rx="38" ry="48"/>
    <ellipse cx="98" cy="286" rx="17" ry="58"/>
    <ellipse cx="142" cy="286" rx="17" ry="58"/>
  </g>
</svg>
